<?xml version="1.0" encoding="utf-8"?>
<!-- Generator: Adobe Illustrator 15.1.0, SVG Export Plug-In . SVG Version: 6.00 Build 0)  -->
<!DOCTYPE svg PUBLIC "-//W3C//DTD SVG 1.1//EN" "http://www.w3.org/Graphics/SVG/1.1/DTD/svg11.dtd">
<svg version="1.1" id="Calque_1" xmlns="http://www.w3.org/2000/svg" xmlns:xlink="http://www.w3.org/1999/xlink" x="0px" y="0px"
	 width="182px" height="40px" viewBox="0 0 182 40" enable-background="new 0 0 182 40" xml:space="preserve">
<g>
	<path fill="#FFFFFF" d="M15.366,25.465l-1.212-3.033h-4.64l-1.188,3.033H6.235l4.541-10.967h2.158l4.54,10.967H15.366z
		 M13.632,20.893l-1.138-2.973c-0.083-0.199-0.197-0.514-0.344-0.941c-0.147-0.429-0.248-0.742-0.304-0.941
		c-0.149,0.612-0.368,1.282-0.655,2.01l-1.096,2.846H13.632z"/>
	<path fill="#FFFFFF" d="M20.097,25.465V14.543h1.984v9.391h5.138v1.531H20.097z"/>
	<path fill="#FFFFFF" d="M41.528,25.465H39.37l-2.059-6.515c-0.088-0.283-0.199-0.693-0.332-1.229s-0.213-0.908-0.24-1.117
		c-0.056,0.319-0.146,0.732-0.27,1.24c-0.125,0.508-0.229,0.887-0.312,1.136l-2.009,6.484h-2.158l-1.569-5.469l-1.594-5.453h2.025
		l1.735,6.365c0.271,1.021,0.465,1.922,0.581,2.704c0.061-0.424,0.152-0.896,0.273-1.42c0.122-0.522,0.232-0.946,0.332-1.27
		l1.976-6.38h1.968l2.025,6.409c0.193,0.593,0.398,1.479,0.614,2.66c0.083-0.712,0.282-1.619,0.598-2.72l1.727-6.35h2.009
		L41.528,25.465z"/>
	<path fill="#FFFFFF" d="M54.958,25.465l-1.212-3.033h-4.64l-1.188,3.033h-2.092l4.541-10.967h2.158l4.54,10.967H54.958z
		 M53.224,20.893l-1.138-2.973c-0.083-0.199-0.197-0.514-0.344-0.941c-0.147-0.429-0.248-0.742-0.304-0.941
		c-0.149,0.612-0.368,1.282-0.655,2.01l-1.096,2.846H53.224z"/>
	<path fill="#FFFFFF" d="M63.117,19.525l2.872-4.982h2.158l-4.043,6.686v4.236h-1.992v-4.176l-4.025-6.746h2.158L63.117,19.525z"/>
	<path fill="#FFFFFF" d="M77.767,22.499c0,0.971-0.39,1.733-1.17,2.286s-1.856,0.829-3.229,0.829c-1.372,0-2.495-0.191-3.37-0.575
		v-1.688c0.554,0.234,1.142,0.418,1.765,0.553c0.622,0.135,1.202,0.202,1.738,0.202c0.786,0,1.366-0.135,1.739-0.403
		c0.374-0.27,0.561-0.631,0.561-1.084c0-0.408-0.172-0.754-0.515-1.038c-0.344-0.284-1.052-0.62-2.125-1.009
		c-1.107-0.403-1.888-0.864-2.341-1.382c-0.454-0.518-0.681-1.141-0.681-1.867c0-0.912,0.359-1.629,1.079-2.152
		c0.719-0.522,1.685-0.784,2.896-0.784c1.162,0,2.319,0.229,3.47,0.688l-0.631,1.457c-1.079-0.409-2.042-0.613-2.889-0.613
		c-0.642,0-1.129,0.126-1.461,0.378c-0.332,0.251-0.498,0.584-0.498,0.997c0,0.284,0.066,0.526,0.199,0.729
		c0.133,0.201,0.352,0.392,0.656,0.571c0.304,0.18,0.852,0.416,1.644,0.71c0.891,0.333,1.544,0.645,1.959,0.934
		s0.719,0.615,0.913,0.979C77.67,21.577,77.767,22.006,77.767,22.499z"/>
	<path fill="#FFFFFF" d="M86.572,25.465V14.543h1.983v9.391h5.139v1.531H86.572z"/>
	<path fill="#FFFFFF" d="M103.671,25.465h-6.865V14.543h6.865v1.509H98.79v2.974h4.573v1.494H98.79v3.429h4.881V25.465z"/>
	<path fill="#FFFFFF" d="M114.843,25.465l-1.212-3.033h-4.641l-1.187,3.033h-2.092l4.54-10.967h2.158l4.541,10.967H114.843z
		 M113.107,20.893l-1.137-2.973c-0.083-0.199-0.198-0.514-0.345-0.941c-0.146-0.429-0.248-0.742-0.303-0.941
		c-0.149,0.612-0.368,1.282-0.656,2.01l-1.096,2.846H113.107z"/>
	<path fill="#FFFFFF" d="M121.557,21.102v4.363h-1.983V14.543h3.428c1.566,0,2.726,0.264,3.479,0.792
		c0.752,0.527,1.129,1.324,1.129,2.391c0,1.359-0.786,2.328-2.357,2.905l3.428,4.834h-2.258l-2.905-4.363H121.557z M121.557,19.623
		h1.378c0.925,0,1.594-0.154,2.009-0.464c0.415-0.309,0.623-0.767,0.623-1.374c0-0.618-0.225-1.061-0.673-1.33
		c-0.448-0.269-1.123-0.403-2.025-0.403h-1.312V19.623z"/>
	<path fill="#FFFFFF" d="M141.569,25.465h-2.433l-5.968-8.703h-0.066l0.041,0.485c0.078,0.927,0.116,1.773,0.116,2.54v5.678h-1.801
		V14.543h2.407l5.951,8.658h0.05c-0.011-0.114-0.033-0.531-0.066-1.251s-0.05-1.281-0.05-1.685v-5.723h1.818V25.465z"/>
	<path fill="#FFFFFF" d="M145.793,25.465V14.543h1.984v10.922H145.793z"/>
	<path fill="#FFFFFF" d="M162.111,25.465h-2.432l-5.969-8.703h-0.066l0.041,0.485c0.078,0.927,0.117,1.773,0.117,2.54v5.678h-1.802
		V14.543h2.407l5.951,8.658h0.051c-0.012-0.114-0.033-0.531-0.066-1.251s-0.051-1.281-0.051-1.685v-5.723h1.818V25.465z"/>
	<path fill="#FFFFFF" d="M171.299,19.541h4.465v5.483c-0.73,0.214-1.432,0.366-2.104,0.455c-0.674,0.09-1.398,0.135-2.18,0.135
		c-1.837,0-3.253-0.489-4.249-1.468s-1.494-2.359-1.494-4.143c0-1.758,0.562-3.134,1.685-4.128c1.124-0.993,2.67-1.49,4.641-1.49
		c1.266,0,2.467,0.22,3.602,0.657l-0.697,1.487c-0.984-0.409-1.971-0.613-2.955-0.613c-1.295,0-2.318,0.366-3.07,1.099
		c-0.753,0.732-1.129,1.733-1.129,3.003c0,1.335,0.339,2.35,1.017,3.045c0.678,0.694,1.653,1.042,2.925,1.042
		c0.643,0,1.328-0.072,2.059-0.217v-2.816h-2.514V19.541z"/>
</g>
</svg>
