<?xml version="1.0" encoding="utf-8"?>
<!-- Generator: Adobe Illustrator 15.1.0, SVG Export Plug-In . SVG Version: 6.00 Build 0)  -->
<!DOCTYPE svg PUBLIC "-//W3C//DTD SVG 1.1//EN" "http://www.w3.org/Graphics/SVG/1.1/DTD/svg11.dtd">
<svg version="1.1" id="Calque_1" xmlns="http://www.w3.org/2000/svg" xmlns:xlink="http://www.w3.org/1999/xlink" x="0px" y="0px"
	 width="50px" height="70px" viewBox="0 0 50 70" enable-background="new 0 0 50 70" xml:space="preserve">
<g>
	<g>
		<path fill="#FFFFFF" d="M2.591,62.77l-0.007-9.256c0,0,44.653-0.016,44.649-0.011c-7.82,5.646-8.518,15.806-8.518,15.806
			C22.184,69.759,17.7,58.895,2.591,62.77L2.591,62.77z"/>
		<path fill="#FFFFFF" d="M33.504,49.115c0,0,2.563-1.331,5.229-1.331c2.834,0,4.271,1.346,4.271,1.346s2.563-2.297,2.563-6.683
			c0-4.715-3.157-9.097-8.549-9.097c-1.45,0-2.875,0.318-3.552,0.576C36.45,39.564,35.524,44.434,33.504,49.115L33.504,49.115z"/>
		<path fill="#FFFFFF" d="M3.359,49.115c0,0,2.563-1.331,5.229-1.331c2.832,0,4.27,1.346,4.27,1.346s2.563-2.297,2.563-6.683
			c0-4.715-3.154-9.097-8.55-9.097c-1.45,0-2.874,0.318-3.548,0.576C6.308,39.564,5.382,44.434,3.359,49.115L3.359,49.115z"/>
		<path fill="#FFFFFF" d="M16.172,49.629c0,0,3.449-1.791,7.04-1.791c3.821,0,5.753,1.811,5.753,1.811s3.45-3.092,3.45-9
			c0-6.344-4.25-12.252-11.518-12.252c-1.951,0-3.871,0.435-4.777,0.779C20.143,36.766,18.896,43.327,16.172,49.629L16.172,49.629z"
			/>
		<path fill="#FFFFFF" d="M17.225,26.357c0,0,2.56-1.329,5.227-1.329c2.834,0,4.271,1.344,4.271,1.344s2.562-2.296,2.562-6.681
			c0-4.714-3.156-9.098-8.55-9.098c-1.45,0-2.876,0.321-3.551,0.578C20.169,16.811,19.246,21.677,17.225,26.357L17.225,26.357z"/>
		<path fill="#FFFFFF" d="M4.794,30.809c0,0,2.098-1.087,4.28-1.087c2.321,0,3.499,1.1,3.499,1.1s2.097-1.879,2.097-5.471
			c0-3.86-2.584-7.451-7.002-7.451c-1.188,0-2.354,0.265-2.908,0.475C7.207,22.99,6.447,26.977,4.794,30.809L4.794,30.809z"/>
		<path fill="#FFFFFF" d="M31.792,30.809c0,0,2.098-1.087,4.281-1.087c2.323,0,3.5,1.1,3.5,1.1s2.098-1.879,2.098-5.471
			c0-3.86-2.586-7.451-7.005-7.451c-1.186,0-2.354,0.265-2.906,0.475C34.204,22.99,33.449,26.977,31.792,30.809L31.792,30.809z"/>
		<path fill="#FFFFFF" d="M17.981,8.566c1.085-1.542,1.721-4.174-0.269-5.903c4.346-1.292,6.938-1.625,12.066-0.476
			c0.574,0.823,0.878,1.934,0.735,3.014c5.578,2.147,9.425,0.425,11.735-1.017c0,2.529-2.724,7.399-7.942,7.399
			c-3.019,0-5.559-1.44-5.559-1.44c0.459-0.657,0.692-1.561,0.443-2.639C25.041,6.19,21.121,6.987,17.981,8.566L17.981,8.566z"/>
	</g>
</g>
</svg>
