<?xml version="1.0" encoding="utf-8"?>
<!-- Generator: Adobe Illustrator 15.1.0, SVG Export Plug-In . SVG Version: 6.00 Build 0)  -->
<!DOCTYPE svg PUBLIC "-//W3C//DTD SVG 1.1//EN" "http://www.w3.org/Graphics/SVG/1.1/DTD/svg11.dtd">
<svg version="1.1" id="Calque_1" xmlns="http://www.w3.org/2000/svg" xmlns:xlink="http://www.w3.org/1999/xlink" x="0px" y="0px"
	 width="136px" height="40px" viewBox="0 0 136 40" enable-background="new 0 0 136 40" xml:space="preserve">
<g>
	<path fill="#FFFFFF" d="M19.512,16.35c0,1.939-0.635,3.424-1.904,4.457c-1.27,1.031-3.076,1.549-5.422,1.549h-1.93v6.943H7.223
		V10.738h5.344c2.32,0,4.057,0.475,5.213,1.422C18.934,13.109,19.512,14.506,19.512,16.35z M10.256,19.803h1.613
		c1.557,0,2.699-0.27,3.428-0.813c0.727-0.541,1.092-1.387,1.092-2.539c0-1.066-0.326-1.861-0.979-2.387
		c-0.65-0.523-1.666-0.787-3.047-0.787h-2.107V19.803z"/>
	<path fill="#FFFFFF" d="M34.887,29.299H24.389V10.738h10.498v2.564h-7.465v5.053h6.996v2.539h-6.996v5.828h7.465V29.299z"/>
	<path fill="#FFFFFF" d="M51.584,29.299l-1.854-5.154h-7.098l-1.814,5.154h-3.199l6.943-18.637h3.301l6.945,18.637H51.584z
		 M48.93,21.529l-1.738-5.053c-0.127-0.338-0.303-0.871-0.527-1.6c-0.225-0.727-0.379-1.26-0.463-1.6
		c-0.229,1.041-0.563,2.18-1.004,3.416l-1.676,4.836H48.93z"/>
	<path fill="#FFFFFF" d="M61.463,21.885v7.414h-3.035V10.738h5.244c2.395,0,4.168,0.449,5.318,1.346
		c1.152,0.898,1.727,2.252,1.727,4.063c0,2.311-1.201,3.957-3.605,4.939l5.244,8.213h-3.453l-4.443-7.414H61.463z M61.463,19.371
		h2.107c1.412,0,2.438-0.262,3.072-0.787c0.635-0.523,0.951-1.303,0.951-2.336c0-1.049-0.342-1.803-1.027-2.26
		s-1.719-0.686-3.098-0.686h-2.006V19.371z"/>
	<path fill="#FFFFFF" d="M86.918,24.26c0,1.65-0.596,2.945-1.789,3.885s-2.84,1.408-4.939,1.408c-2.098,0-3.816-0.326-5.154-0.977
		v-2.869c0.848,0.396,1.746,0.711,2.699,0.939c0.951,0.229,1.838,0.342,2.658,0.342c1.203,0,2.09-0.229,2.66-0.686
		c0.572-0.457,0.857-1.07,0.857-1.84c0-0.695-0.264-1.283-0.787-1.766c-0.525-0.482-1.609-1.053-3.25-1.713
		c-1.693-0.686-2.887-1.469-3.58-2.35c-0.695-0.879-1.041-1.938-1.041-3.174c0-1.549,0.549-2.768,1.65-3.656
		c1.1-0.889,2.576-1.332,4.43-1.332c1.777,0,3.547,0.389,5.307,1.168l-0.965,2.475c-1.65-0.693-3.123-1.041-4.418-1.041
		c-0.98,0-1.727,0.215-2.234,0.643c-0.508,0.426-0.762,0.992-0.762,1.693c0,0.482,0.102,0.896,0.305,1.238
		c0.203,0.344,0.537,0.666,1.004,0.971c0.465,0.305,1.303,0.707,2.514,1.207c1.361,0.566,2.361,1.096,2.996,1.586
		c0.635,0.492,1.1,1.045,1.396,1.664C86.77,22.693,86.918,23.422,86.918,24.26z"/>
	<path fill="#FFFFFF" d="M108.16,19.994c0,3.021-0.756,5.369-2.266,7.045c-1.512,1.676-3.65,2.514-6.418,2.514
		c-2.803,0-4.953-0.83-6.455-2.494c-1.504-1.662-2.254-4.027-2.254-7.09c0-3.064,0.756-5.418,2.266-7.059
		c1.512-1.643,3.666-2.463,6.469-2.463c2.758,0,4.891,0.834,6.398,2.5C107.406,14.615,108.16,16.963,108.16,19.994z M93.992,19.994
		c0,2.285,0.461,4.018,1.383,5.199c0.924,1.18,2.289,1.77,4.102,1.77c1.803,0,3.162-0.584,4.082-1.752
		c0.918-1.168,1.377-2.906,1.377-5.217c0-2.277-0.455-4.004-1.365-5.18c-0.91-1.178-2.266-1.766-4.068-1.766
		c-1.82,0-3.193,0.588-4.119,1.766C94.455,15.99,93.992,17.717,93.992,19.994z"/>
	<path fill="#FFFFFF" d="M128.779,29.299h-3.721l-9.127-14.789h-0.102l0.063,0.824c0.119,1.574,0.178,3.014,0.178,4.316v9.648
		h-2.754V10.738h3.682l9.102,14.715h0.076c-0.016-0.195-0.051-0.904-0.102-2.127s-0.076-2.178-0.076-2.863v-9.725h2.781V29.299z"/>
</g>
</svg>
